<?xml version="1.0" encoding="UTF-8" standalone="no"?>
<!-- Created with Inkscape (http://www.inkscape.org/) -->

<svg
   width="297mm"
   height="210mm"
   viewBox="0 0 297 210"
   version="1.1"
   id="svg1"
   xml:space="preserve"
   inkscape:version="1.4.2 (f4327f4, 2025-05-13)"
   sodipodi:docname="spaceshooterlogo.svg"
   xmlns:inkscape="http://www.inkscape.org/namespaces/inkscape"
   xmlns:sodipodi="http://sodipodi.sourceforge.net/DTD/sodipodi-0.dtd"
   xmlns="http://www.w3.org/2000/svg"
   xmlns:svg="http://www.w3.org/2000/svg"><sodipodi:namedview
     id="namedview1"
     pagecolor="#505050"
     bordercolor="#eeeeee"
     borderopacity="1"
     inkscape:showpageshadow="0"
     inkscape:pageopacity="0"
     inkscape:pagecheckerboard="0"
     inkscape:deskcolor="#505050"
     inkscape:document-units="mm"
     showgrid="false"
     inkscape:zoom="2"
     inkscape:cx="488"
     inkscape:cy="347.25"
     inkscape:window-width="1920"
     inkscape:window-height="1017"
     inkscape:window-x="1912"
     inkscape:window-y="-8"
     inkscape:window-maximized="1"
     inkscape:current-layer="layer1"><inkscape:grid
       id="grid2"
       units="mm"
       originx="0"
       originy="0"
       spacingx="0.99999998"
       spacingy="1"
       empcolor="#0099e5"
       empopacity="0.30196078"
       color="#0099e5"
       opacity="0.14901961"
       empspacing="5"
       enabled="true"
       visible="false" /></sodipodi:namedview><defs
     id="defs1" /><g
     inkscape:label="Camada 1"
     inkscape:groupmode="layer"
     id="layer1"
     transform="matrix(59.933968,0,0,59.933968,-452.61458,-409.06788)"><text
       xml:space="preserve"
       style="font-weight:600;font-size:1.4821px;line-height:0.6;font-family:Serenity;-inkscape-font-specification:'Serenity Semi-Bold';text-align:start;writing-mode:lr-tb;direction:ltr;text-anchor:start;display:none;fill:#000000;stroke:none;stroke-width:0;stroke-dasharray:none;stroke-opacity:1"
       x="10.224483"
       y="8.5965834"
       id="text4"
       transform="scale(0.98973879,1.0103676)"><tspan
         style="font-style:normal;font-variant:normal;font-weight:normal;font-stretch:normal;font-size:1.4821px;line-height:0.6;font-family:'Pixeloid Sans';-inkscape-font-specification:'Pixeloid Sans';text-align:center;writing-mode:lr-tb;direction:ltr;text-anchor:middle;fill:#ffffff;fill-opacity:1;stroke:none;stroke-width:0;stroke-dasharray:none;stroke-opacity:1"
         sodipodi:role="line"
         id="tspan1"
         x="10.224483"
         y="8.5965834" /><tspan
         style="font-style:normal;font-variant:normal;font-weight:normal;font-stretch:normal;font-size:0.98806px;line-height:0.6;font-family:'Pixeloid Sans';-inkscape-font-specification:'Pixeloid Sans';text-align:center;writing-mode:lr-tb;direction:ltr;text-anchor:middle;fill:#999999;fill-opacity:1;stroke:none;stroke-width:0;stroke-dasharray:none;stroke-opacity:1"
         sodipodi:role="line"
         id="tspan3"
         x="10.224483"
         y="9.4941273">Shooter</tspan><tspan
         sodipodi:role="line"
         style="line-height:0.6;fill:#ffffff;fill-opacity:1;stroke:none;stroke-width:0;stroke-dasharray:none;stroke-opacity:1"
         x="10.224483"
         y="10.389035"
         id="tspan4" /></text><text
       xml:space="preserve"
       style="font-weight:600;font-size:1.4821px;line-height:0.6;font-family:Serenity;-inkscape-font-specification:'Serenity Semi-Bold';text-align:start;writing-mode:lr-tb;direction:ltr;text-anchor:start;display:none;fill:#000000;stroke:none;stroke-width:0;stroke-dasharray:none;stroke-opacity:1"
       x="10.224483"
       y="8.5965834"
       id="text7"
       transform="scale(0.98973879,1.0103676)"><tspan
         style="font-style:normal;font-variant:normal;font-weight:normal;font-stretch:normal;font-size:1.4821px;line-height:0.6;font-family:'Pixeloid Sans';-inkscape-font-specification:'Pixeloid Sans';text-align:center;writing-mode:lr-tb;direction:ltr;text-anchor:middle;fill:#ffffff;fill-opacity:1;stroke:none;stroke-width:0;stroke-dasharray:none;stroke-opacity:1"
         sodipodi:role="line"
         x="10.224483"
         y="8.5965834"
         id="tspan5">Sp  ce</tspan><tspan
         style="font-style:normal;font-variant:normal;font-weight:normal;font-stretch:normal;font-size:0.98806px;line-height:0.6;font-family:'Pixeloid Sans';-inkscape-font-specification:'Pixeloid Sans';text-align:center;writing-mode:lr-tb;direction:ltr;text-anchor:middle;fill:#999999;fill-opacity:1;stroke:none;stroke-width:0;stroke-dasharray:none;stroke-opacity:1"
         sodipodi:role="line"
         id="tspan6"
         x="10.224483"
         y="9.4941273" /><tspan
         sodipodi:role="line"
         style="line-height:0.6;fill:#ffffff;fill-opacity:1;stroke:none;stroke-width:0;stroke-dasharray:none;stroke-opacity:1"
         x="10.224483"
         y="10.389035"
         id="tspan7" /></text><g
       id="text10"
       style="font-weight:600;font-size:1.4821px;line-height:0.6;font-family:Serenity;-inkscape-font-specification:'Serenity Semi-Bold';stroke-width:0"
       transform="scale(0.98973879,1.0103676)"
       aria-label="&#10;Shooter&#10;"><path
         style="font-weight:normal;font-family:'Pixeloid Sans';-inkscape-font-specification:'Pixeloid Sans';text-align:center;text-anchor:middle;fill:#808080"
         d="M 8.1934719,9.3843426 H 8.0836874 V 9.2745582 H 8.1934719 Z M 8.5228252,9.4941271 H 8.1934719 V 9.3843426 H 8.5228252 Z M 8.6326097,9.3843426 H 8.5228252 V 9.1647737 H 8.6326097 Z M 8.5228252,8.8354204 H 8.1934719 V 8.7256359 H 8.5228252 Z M 8.6326097,8.9452048 H 8.5228252 V 8.8354204 H 8.6326097 Z M 8.1934719,9.0549893 H 8.0836874 V 8.8354204 H 8.1934719 Z M 8.5228252,9.1647737 H 8.1934719 V 9.0549893 h 0.3293533 z"
         id="path13" /><path
         style="font-weight:normal;font-size:0.98806px;font-family:'Pixeloid Sans';-inkscape-font-specification:'Pixeloid Sans';text-align:center;text-anchor:middle;fill:#999999"
         d="M 8.8521779,9.1647737 V 9.4941271 H 8.7423935 V 8.7256359 H 8.8521779 V 9.0549893 H 8.9619623 V 9.1647737 Z M 9.2913157,9.4941271 H 9.1815312 V 9.0549893 H 9.2913157 Z M 9.1815312,9.0549893 H 8.9619623 V 8.9452048 H 9.1815312 Z M 9.5108839,9.3843426 H 9.4010995 V 9.0549893 H 9.5108839 Z M 9.8402372,9.0549893 H 9.5108839 V 8.9452048 H 9.8402372 Z M 9.9500217,9.3843426 H 9.8402372 V 9.0549893 H 9.9500217 Z M 9.8402372,9.4941271 H 9.5108839 V 9.3843426 H 9.8402372 Z M 10.16959,9.3843426 H 10.059806 V 9.0549893 H 10.16959 Z M 10.498943,9.0549893 H 10.16959 V 8.9452048 h 0.329353 z m 0.109785,0.3293533 H 10.498943 V 9.0549893 h 0.109785 z M 10.498943,9.4941271 H 10.16959 V 9.3843426 h 0.329353 z M 10.93808,8.9452048 h 0.109785 V 9.0549893 H 10.93808 v 0.3293533 h 0.109785 V 9.4941271 H 10.828296 V 9.0549893 H 10.718511 V 8.9452048 h 0.109785 V 8.7256359 h 0.109784 z m 0.658707,0.1097845 H 11.267434 V 8.9452048 h 0.329353 z M 11.267434,9.2745582 V 9.3843426 H 11.157649 V 9.0549893 h 0.109785 v 0.1097844 h 0.329353 V 9.0549893 h 0.109785 v 0.2195689 z m 0.439138,0.2195689 H 11.267434 V 9.3843426 h 0.439138 z M 12.145709,9.1647737 H 12.035924 V 9.0549893 h 0.109785 z M 12.255493,9.0549893 H 12.145709 V 8.9452048 h 0.109784 z M 11.92614,9.2745582 V 9.4941271 H 11.816355 V 8.9452048 h 0.109785 v 0.2195689 h 0.109784 v 0.1097845 z"
         id="path14" /></g><path
       style="font-size:1.4821px;line-height:0.6;font-family:'Pixeloid Sans';-inkscape-font-specification:'Pixeloid Sans';text-align:center;text-anchor:middle;fill:#ffffff;stroke-width:0"
       d="M 7.9189946,8.4319056 H 7.7543168 V 8.2672278 H 7.9189946 Z M 8.4130279,8.5965834 H 7.9189946 V 8.4319056 H 8.4130279 Z M 8.5777057,8.4319056 H 8.4130279 V 8.10255 H 8.5777057 Z M 8.4130279,7.6085167 H 7.9189946 V 7.4438389 H 8.4130279 Z M 8.5777057,7.7731945 H 8.4130279 V 7.6085167 H 8.5777057 Z M 7.9189946,7.9378723 H 7.7543168 V 7.6085167 H 7.9189946 Z M 8.4130279,8.10255 H 7.9189946 V 7.9378723 H 8.4130279 Z M 9.4010936,8.4319056 V 7.9378723 H 9.5657714 V 8.4319056 Z M 8.9070603,8.2672278 H 9.0717381 V 8.4319056 H 8.9070603 V 8.9259389 H 8.7423825 V 7.7731945 H 8.9070603 V 7.9378723 H 9.0717381 V 8.10255 H 8.9070603 Z M 9.0717381,7.9378723 V 7.7731945 h 0.3293555 v 0.1646778 z m 0,0.6587111 V 8.4319056 H 9.4010936 V 8.5965834 Z M 10.883195,8.4319056 H 10.718517 V 7.9378723 h 0.164678 z M 11.541906,7.9378723 H 10.883195 V 7.7731945 h 0.658711 z m 0,0.6587111 H 10.883195 V 8.4319056 h 0.658711 z M 12.365294,7.9378723 H 11.87126 V 7.7731945 h 0.494034 z M 11.87126,8.2672278 V 8.4319056 H 11.706583 V 7.9378723 H 11.87126 V 8.10255 h 0.494034 V 7.9378723 h 0.164677 v 0.3293555 z m 0.658711,0.3293556 H 11.87126 V 8.4319056 h 0.658711 z"
       id="text13"
       transform="scale(0.98973879,1.0103676)"
       aria-label="Sp  ce&#10;&#10;" /></g></svg>
